<svg width="794" height="605" viewBox="0 0 794 605" fill="none" xmlns="http://www.w3.org/2000/svg">
<rect width="794" height="605" fill="white"/>
<path d="M292.5 254.5L209.5 207L191 267.5L247.5 300.5L292.5 349V254.5Z" fill="url(#paint0_linear_101_23)"/>
<path d="M126 350V255.5L209.5 207L191 267.5V338.5L126 350Z" fill="url(#paint1_linear_101_23)"/>
<path d="M210.5 397L292.5 349L247.5 300.5L190.5 338.5L126 350L210.5 397Z" fill="url(#paint2_linear_101_23)"/>
<path d="M373.312 301.056C377.152 302.272 380.16 304.32 382.336 307.2C384.512 310.016 385.6 313.504 385.6 317.664C385.6 323.552 383.296 328.096 378.688 331.296C374.144 334.432 367.488 336 358.72 336H323.968V268.8H356.8C364.992 268.8 371.264 270.368 375.616 273.504C380.032 276.64 382.24 280.896 382.24 286.272C382.24 289.536 381.44 292.448 379.84 295.008C378.304 297.568 376.128 299.584 373.312 301.056ZM339.424 280.512V296.352H354.88C358.72 296.352 361.632 295.68 363.616 294.336C365.6 292.992 366.592 291.008 366.592 288.384C366.592 285.76 365.6 283.808 363.616 282.528C361.632 281.184 358.72 280.512 354.88 280.512H339.424ZM357.568 324.288C361.664 324.288 364.736 323.616 366.784 322.272C368.896 320.928 369.952 318.848 369.952 316.032C369.952 310.464 365.824 307.68 357.568 307.68H339.424V324.288H357.568ZM446.91 310.368C446.91 310.56 446.814 311.904 446.622 314.4H407.55C408.254 317.6 409.918 320.128 412.542 321.984C415.166 323.84 418.43 324.768 422.334 324.768C425.022 324.768 427.39 324.384 429.438 323.616C431.55 322.784 433.502 321.504 435.294 319.776L443.262 328.416C438.398 333.984 431.294 336.768 421.95 336.768C416.126 336.768 410.974 335.648 406.494 333.408C402.014 331.104 398.558 327.936 396.126 323.904C393.694 319.872 392.478 315.296 392.478 310.176C392.478 305.12 393.662 300.576 396.03 296.544C398.462 292.448 401.758 289.28 405.918 287.04C410.142 284.736 414.846 283.584 420.03 283.584C425.086 283.584 429.662 284.672 433.758 286.848C437.854 289.024 441.054 292.16 443.358 296.256C445.726 300.288 446.91 304.992 446.91 310.368ZM420.126 294.912C416.734 294.912 413.886 295.872 411.582 297.792C409.278 299.712 407.87 302.336 407.358 305.664H432.798C432.286 302.4 430.878 299.808 428.574 297.888C426.27 295.904 423.454 294.912 420.126 294.912ZM457.937 268.8H473.489V323.328H507.185V336H457.937V268.8ZM514.818 284.352H529.794V336H514.818V284.352ZM522.306 277.152C519.554 277.152 517.314 276.352 515.586 274.752C513.858 273.152 512.994 271.168 512.994 268.8C512.994 266.432 513.858 264.448 515.586 262.848C517.314 261.248 519.554 260.448 522.306 260.448C525.058 260.448 527.298 261.216 529.026 262.752C530.754 264.288 531.618 266.208 531.618 268.512C531.618 271.008 530.754 273.088 529.026 274.752C527.298 276.352 525.058 277.152 522.306 277.152ZM594.957 284.352L573.165 336H557.709L536.013 284.352H551.469L565.773 319.488L580.557 284.352H594.957ZM650.254 310.368C650.254 310.56 650.158 311.904 649.966 314.4H610.894C611.598 317.6 613.262 320.128 615.886 321.984C618.51 323.84 621.774 324.768 625.678 324.768C628.366 324.768 630.734 324.384 632.782 323.616C634.894 322.784 636.846 321.504 638.638 319.776L646.606 328.416C641.742 333.984 634.638 336.768 625.294 336.768C619.47 336.768 614.318 335.648 609.838 333.408C605.358 331.104 601.902 327.936 599.47 323.904C597.038 319.872 595.822 315.296 595.822 310.176C595.822 305.12 597.006 300.576 599.374 296.544C601.806 292.448 605.102 289.28 609.262 287.04C613.486 284.736 618.19 283.584 623.374 283.584C628.43 283.584 633.006 284.672 637.102 286.848C641.198 289.024 644.398 292.16 646.702 296.256C649.07 300.288 650.254 304.992 650.254 310.368ZM623.47 294.912C620.078 294.912 617.23 295.872 614.926 297.792C612.622 299.712 611.214 302.336 610.702 305.664H636.142C635.63 302.4 634.222 299.808 631.918 297.888C629.614 295.904 626.798 294.912 623.47 294.912Z" fill="url(#paint3_linear_101_23)"/>
<defs>
<linearGradient id="paint0_linear_101_23" x1="210" y1="210" x2="293" y2="349" gradientUnits="userSpaceOnUse">
<stop stop-color="#11998E"/>
<stop offset="1" stop-color="#38EF7D"/>
</linearGradient>
<linearGradient id="paint1_linear_101_23" x1="209" y1="207" x2="133" y2="340" gradientUnits="userSpaceOnUse">
<stop stop-color="#38EF7D"/>
<stop offset="1" stop-color="#11998E"/>
</linearGradient>
<linearGradient id="paint2_linear_101_23" x1="272.5" y1="329" x2="137.5" y2="357" gradientUnits="userSpaceOnUse">
<stop stop-color="#11998E"/>
<stop offset="1" stop-color="#38EF7D"/>
</linearGradient>
<linearGradient id="paint3_linear_101_23" x1="316" y1="301" x2="667" y2="301" gradientUnits="userSpaceOnUse">
<stop stop-color="#11998E"/>
<stop offset="1" stop-color="#38EF7D"/>
</linearGradient>
</defs>
</svg>
